<svg width="17" height="15" viewBox="0 0 17 15" fill="none" xmlns="http://www.w3.org/2000/svg">
<path d="M14.875 10.5894V2.08936H2.125V10.5894H14.875ZM14.875 0.694824C15.2734 0.694824 15.6055 0.838704 15.8711 1.12646C16.1589 1.39209 16.3027 1.71305 16.3027 2.08936V10.5894C16.3027 10.9878 16.1589 11.3309 15.8711 11.6187C15.6055 11.8843 15.2734 12.0171 14.875 12.0171H9.92773V13.4448H11.3223V14.8394H5.67773V13.4448H7.07227V12.0171H2.125C1.72656 12.0171 1.38346 11.8843 1.0957 11.6187C0.830078 11.3309 0.697266 10.9878 0.697266 10.5894V2.08936C0.697266 1.71305 0.830078 1.39209 1.0957 1.12646C1.38346 0.838704 1.72656 0.694824 2.125 0.694824H14.875ZM3.55273 3.51709H9.92773V7.06982H3.55273V3.51709ZM10.625 3.51709H13.4473V4.94482H10.625V3.51709ZM13.4473 5.64209V9.19482H10.625V5.64209H13.4473ZM3.55273 7.76709H6.375V9.19482H3.55273V7.76709ZM7.07227 7.76709H9.92773V9.19482H7.07227V7.76709Z" fill="#28476B" fill-opacity="0.4"/>
</svg>
